<svg xmlns="http://www.w3.org/2000/svg" xmlns:xlink="http://www.w3.org/1999/xlink" aria-hidden="true" role="img" class="iconify iconify--logos" width="128" height="128" preserveAspectRatio="xMidYMid meet" viewBox="0 0 128 128"><path fill="#61dafb" d="M128 64a2.63 2.63 0 0 0-2.63-2.63h-1.31a2.63 2.63 0 0 0-2.63 2.63v.53a2.63 2.63 0 0 0 2.63 2.63h1.31A2.63 2.63 0 0 0 128 64.53v-.53zM0 64a2.63 2.63 0 0 0 2.63 2.63h1.31a2.63 2.63 0 0 0 2.63-2.63v-.53A2.63 2.63 0 0 0 3.94 61.37H2.63A2.63 2.63 0 0 0 0 64v.53zM64 0a2.63 2.63 0 0 0-2.63 2.63v1.31a2.63 2.63 0 0 0 2.63 2.63h.53a2.63 2.63 0 0 0 2.63-2.63V2.63A2.63 2.63 0 0 0 64.53 0H64zm0 128a2.63 2.63 0 0 0-2.63-2.63v-1.31a2.63 2.63 0 0 0 2.63-2.63h.53a2.63 2.63 0 0 0 2.63 2.63v1.31A2.63 2.63 0 0 0 64.53 128H64zM109.25 18.75a2.63 2.63 0 0 0-3.71 0l-.92.92a2.63 2.63 0 0 0 0 3.71l.92.92a2.63 2.63 0 0 0 3.71 0l.92-.92a2.63 2.63 0 0 0 0-3.71l-.92-.92zm-90.5 90.5a2.63 2.63 0 0 0 0 3.71l.92.92a2.63 2.63 0 0 0 3.71 0l.92-.92a2.63 2.63 0 0 0 0-3.71l-.92-.92a2.63 2.63 0 0 0-3.71 0zM18.75 18.75a2.63 2.63 0 0 0 0 3.71l.92.92a2.63 2.63 0 0 0 3.71 0l.92-.92a2.63 2.63 0 0 0 0-3.71l-.92-.92a2.63 2.63 0 0 0-3.71 0zm90.5 90.5a2.63 2.63 0 0 0 3.71 0l.92-.92a2.63 2.63 0 0 0 0-3.71l-.92-.92a2.63 2.63 0 0 0-3.71 0l.92.92a2.63 2.63 0 0 0 0 3.71zM11.2 45.47a2.63 2.63 0 0 0-4.55 2.27l.26 1.5a2.63 2.63 0 0 0 4.55-2.27l-.26-1.5zm105.6 31.58a2.63 2.63 0 0 0 4.55-2.27l-.26-1.5a2.63 2.63 0 0 0-4.55 2.27l.26 1.5zM18.53 11.2a2.63 2.63 0 0 0-2.27-4.55l-1.5.26a2.63 2.63 0 0 0 2.27 4.55l1.5-.26zm91 105.6a2.63 2.63 0 0 0 2.27 4.55l1.5-.26a2.63 2.63 0 0 0-2.27-4.55l-1.5.26zM45.47 11.2a2.63 2.63 0 0 0-2.27-4.55l-1.5.26a2.63 2.63 0 0 0 2.27 4.55l1.5-.26zM82.53 116.8a2.63 2.63 0 0 0 2.27 4.55l1.5-.26a2.63 2.63 0 0 0-2.27-4.55l-1.5.26zM11.2 82.53a2.63 2.63 0 0 0-4.55-2.27l.26 1.5a2.63 2.63 0 0 0 4.55 2.27l-.26-1.5zm105.6-31.58a2.63 2.63 0 0 0 4.55 2.27l-.26-1.5a2.63 2.63 0 0 0-4.55-2.27l.26 1.5zM18.53 116.8a2.63 2.63 0 0 0-2.27 4.55l1.5.26a2.63 2.63 0 0 0 2.27-4.55l-1.5-.26zm91-105.6a2.63 2.63 0 0 0 2.27-4.55l-1.5-.26a2.63 2.63 0 0 0-2.27 4.55l1.5.26zM45.47 116.8a2.63 2.63 0 0 0-2.27 4.55l1.5.26a2.63 2.63 0 0 0 2.27-4.55l-1.5-.26zM82.53 11.2a2.63 2.63 0 0 0 2.27-4.55l-1.5.26a2.63 2.63 0 0 0-2.27 4.55l1.5.26zM64 21.33a42.67 42.67 0 1 0 42.67 42.67A42.67 42.67 0 0 0 64 21.33zm0 80A37.33 37.33 0 1 1 101.33 64 37.33 37.33 0 0 1 64 101.33zM64 48a16 16 0 1 0 16 16a16 16 0 0 0-16-16zm0 26.67A10.67 10.67 0 1 1 74.67 64 10.67 10.67 0 0 1 64 74.67z"/></svg>
